<svg width="29" height="40" viewBox="0 0 29 40" fill="none" xmlns="http://www.w3.org/2000/svg">
<g clip-path="url(#clip0_13_1586)">
<path d="M14.46 8.7C18.16 8.7 21.16 11.67 21.16 15.34C21.16 19.01 18.16 21.98 14.46 21.98C10.76 21.98 7.76 19.01 7.76 15.34C7.76 11.67 10.76 8.7 14.46 8.7ZM13.38 38.46L13.45 38.58C13.6 38.79 13.96 39.21 14.46 39.21C14.96 39.21 15.28 38.83 15.43 38.61L26.21 21.79C27.6 19.64 28.41 17.09 28.41 14.34C28.42 6.7 22.17 0.5 14.46 0.5C6.75 0.5 0.5 6.7 0.5 14.34C0.5 17.19 1.37 19.85 2.87 22.05L13.39 38.46H13.38Z" stroke="#21274D" stroke-miterlimit="10"/>
</g>
<defs>
<clipPath id="clip0_13_1586">
<rect width="28.92" height="39.71" fill="white"/>
</clipPath>
</defs>
</svg>
