<svg xmlns="http://www.w3.org/2000/svg" viewBox="0 0 40 40">
  <path d="M23.46 17.21a.84.84 0 01-.84-.85c0-.47.38-.84.84-.84.47 0 .85.38.85.84-.01.47-.39.85-.85.85zm-6.92 0a.84.84 0 01-.84-.85c0-.47.38-.84.84-.84.47 0 .85.38.85.84 0 .47-.38.85-.85.85zm.77-5.07c0-1.48 1.21-2.69 2.69-2.69s2.69 1.21 2.69 2.69v1.15h-5.38v-1.15zm12.28 15.49L28.03 14.7c-.1-.8-.8-1.4-1.62-1.4h-2.19v-1.15c0-2.33-1.89-4.23-4.23-4.23-2.33 0-4.23 1.89-4.23 4.23v1.15h-2.19c-.83 0-1.52.6-1.62 1.4l-1.56 12.93c-.06.46.09.91.4 1.26.31.34.76.54 1.23.54h15.93c.47 0 .92-.2 1.23-.54.33-.35.47-.81.41-1.26z"/>
</svg>
