<?xml version="1.0" encoding="utf-8"?>
<!-- Generator: Adobe Illustrator 24.1.2, SVGIcon Export Plug-In . SVGIcon Version: 6.00 Build 0)  -->
<svg version="1.1" id="Ebene_1" xmlns="http://www.w3.org/2000/svg" xmlns:xlink="http://www.w3.org/1999/xlink" x="0px" y="0px"
	 viewBox="0 0 210 100" style="enable-background:new 0 0 210 100;" xml:space="preserve">
<style type="text/css">
	.st0{fill:#ECEDED;}
	.st1{fill-rule:evenodd;clip-rule:evenodd;fill:#ECEDED;}
</style>
<g>
	<g>
		<path class="st0" d="M47.7,40.3c-2.3,0-3.7,1.7-4.3,3.7h-0.1c-0.7-2.1-2.3-3.7-4.7-3.7c-2.1,0-3.7,1.5-4.4,3.3l-0.1-0.1l0.1-2.9
			h-6.7v17.8h6.6V50c0-0.5,0-1.3,0.1-2c0.2-0.7,0.5-1.2,1.3-1.2c0.8,0,1,1,1,1.8v9.8h6.6v-8.6c0-0.6,0-1.3,0.1-2
			c0.2-0.7,0.4-1.2,1.3-1.2c1,0,1.1,1.4,1.1,2.1v9.6h6.6V46.6C52.4,42.7,51.1,40.3,47.7,40.3z"/>
		<rect x="54.2" y="46.4" class="st0" width="6.3" height="12.1"/>
		<path class="st0" d="M57.3,40c-2,0-3.6,1.2-3.6,2.6c0,1.5,1.7,2.6,3.7,2.6c2.1,0,3.7-1.2,3.7-2.7C61,41.1,59.3,40,57.3,40z"/>
		<path class="st0" d="M68.9,58.4h-6.6V40.6h6.7l-0.1,2.9l0.1,0.1c0.6-2,2-3.3,4.3-3.3c3.5,0,4.8,2.5,4.8,6.4v11.8h-6.6v-9.6
			c0-0.7,0-2.1-1-2c-0.8,0-1.5,1.2-1.5,3.8L68.9,58.4z"/>
	</g>
	<path class="st0" d="M129.9,58.4h-6.5l0.3-2.9l-0.1-0.1c-0.8,1.9-2.3,3.3-4.5,3.3c-4.5,0-5.4-5.9-5.4-9.3c0-3.4,1-8.9,5.5-8.9
		c2.1,0,3.4,1.4,4.2,3.1l0.1-0.1l-0.3-2.7h6.6V58.4L129.9,58.4z M123.2,51.8c0.2-0.9,0.2-1.9,0.2-2.4c0-0.5,0-1.3-0.1-2.1
		c-0.2-0.8-0.5-1.4-1.3-1.4c-0.8,0-1.2,0.8-1.4,1.8c-0.2,0.9-0.2,2-0.2,2.6c0,0.5,0,1.3,0.2,2c0.2,0.7,0.5,1.2,1.1,1.2
		C122.7,53.4,123.1,52.7,123.2,51.8L123.2,51.8z"/>
	<path class="st0" d="M147.5,57.8c0,5.3-2.5,8-8.1,8c-4.3,0-7.4-1.8-7.9-6.3h6.7c0,0.8,0.5,1.4,1.3,1.4c1.2,0,1.4-1.1,1.4-3v-2.3
		h-0.1c-0.6,1.2-2.2,2.2-3.8,2.2c-4.5,0-5.8-5.4-5.8-8.8c0-3.3,1.3-9.1,5.7-9.1c1.9,0,3,1.2,3.9,2.6l0.1-0.1l-0.1-2.2h6.7V57.8
		L147.5,57.8z M141.1,49c0-1.8-0.1-3.7-1.5-3.7c-1.3,0-1.5,1.8-1.5,3.6c0,1.6,0.3,3.8,1.5,3.8C140.9,52.7,141.1,50.7,141.1,49
		L141.1,49z"/>
	<path class="st0" d="M182.4,50.3c0,5.5-5.2,10.2-16.6,10.2c-11.4,0-16.6-4.7-16.6-10.2s5.2-10.2,16.6-10.2
		C177.2,40.1,182.4,44.8,182.4,50.3L182.4,50.3z M162.1,50.3c0,2,0.5,4.7,3.6,4.7c3.2,0,3.6-2.7,3.6-4.7c0-2-0.5-4.7-3.6-4.7
		C162.6,45.6,162.1,48.3,162.1,50.3L162.1,50.3z"/>
	<path class="st0" d="M94.4,43.5L94.4,43.5c0.8-1.8,2.3-3.3,4.5-3.3c2.4,0,3.9,1.6,4.7,3.7h0.1c0.6-2,2-3.7,4.3-3.7
		c3.5,0,4.8,2.5,4.8,6.4v11.8H106v-9.6c0-0.7-0.1-2.1-1.1-2.1c-0.8,0-1.1,0.5-1.3,1.2c-0.2,0.6-0.1,1.4-0.1,2v8.6h-6.6v-9.8
		c0-0.8-0.2-1.8-1-1.8c-0.8,0-1.2,0.5-1.3,1.2c-0.2,0.7-0.1,1.4-0.1,2v8.5h-6.6V40.6h6.7L94.4,43.5L94.4,43.5z"/>
	<path class="st0" d="M79.7,58.5V46.4H86v12.1H79.7L79.7,58.5z M79.2,42.6c0-1.4,1.6-2.6,3.6-2.6c2,0,3.7,1.1,3.7,2.6
		c0,1.4-1.6,2.7-3.7,2.7C80.9,45.2,79.2,44.1,79.2,42.6L79.2,42.6z"/>
	<g>
		<polygon class="st0" points="27.6,65.7 29.1,65.7 30.2,62.3 30.2,62.3 31,65.7 31.6,65.7 33.6,62.3 33.6,62.3 33.5,65.7 
			35.1,65.7 35.1,59.7 33.6,59.7 31.8,62.9 31.1,59.7 29.5,59.7 27.6,65.7 		"/>
		<path class="st1" d="M38.4,64.9l0.2,0.8h1.2l-1-4.5h-1.3l-2.4,4.5h1.2l0.4-0.8H38.4L38.4,64.9z M38.3,64h-1l0.7-1.4h0L38.3,64
			L38.3,64z"/>
		<path class="st1" d="M42.8,63.9c0.7-0.1,1.1-0.6,1.2-1.3c0.2-1-0.5-1.4-1.3-1.4h-1.7l-0.7,4.5h1.2l0.3-1.7h0l0.8,1.7h1.4
			L42.8,63.9L42.8,63.9z M41.9,62.1H42c0.4,0,0.8,0.1,0.7,0.6c-0.1,0.5-0.5,0.6-0.9,0.6h-0.1L41.9,62.1L41.9,62.1z"/>
		<polygon class="st0" points="45.8,63.1 45.8,63.1 46.1,61.2 44.9,61.2 44.2,65.7 45.4,65.7 45.7,63.8 45.7,63.8 46.9,65.7 
			48.4,65.7 46.8,63.3 48.9,61.2 47.5,61.2 45.8,63.1 		"/>
		<polygon class="st0" points="51.8,62.2 52,61.2 49.4,61.2 48.7,65.7 51.3,65.7 51.4,64.7 50,64.7 50.2,63.9 51.5,63.9 51.6,63 
			50.3,63 50.4,62.2 51.8,62.2 		"/>
		<polygon class="st0" points="52,65.7 53.1,65.7 53.6,63 53.6,63 55.3,65.7 56.4,65.7 57.1,61.2 56,61.2 55.5,64 55.5,64 
			53.8,61.2 52.7,61.2 52,65.7 		"/>
		<polygon class="st0" points="57,65.7 58.5,65.7 59.5,62.3 59.6,62.3 60.4,65.7 61,65.7 63,62.3 63,62.3 62.9,65.7 64.4,65.7 
			64.5,59.7 62.9,59.7 61.1,62.9 60.4,59.7 58.9,59.7 57,65.7 		"/>
		<path class="st1" d="M67.9,61.1c-1.3,0-2.6,0.9-2.8,2.3c-0.2,1.4,0.6,2.5,2.1,2.5c1.4,0,2.6-1,2.9-2.5
			C70.2,62,69.2,61.1,67.9,61.1L67.9,61.1z M67.7,62.2c0.7,0,1.2,0.6,1.1,1.2c-0.1,0.8-0.8,1.3-1.5,1.3c-0.7,0-1.2-0.6-1.1-1.3
			C66.4,62.8,67,62.2,67.7,62.2L67.7,62.2z"/>
		<path class="st1" d="M70.2,65.7h1.6c1.2,0,2.4-1,2.6-2.2c0.2-1.3-0.7-2.2-1.9-2.2h-1.6L70.2,65.7L70.2,65.7z M71.9,62.2h0.3
			c0.7,0,1.2,0.4,1.1,1.2c-0.1,0.9-0.8,1.3-1.5,1.3h-0.3L71.9,62.2L71.9,62.2z"/>
		<polygon class="st0" points="77.7,62.2 77.9,61.2 75.4,61.2 74.6,65.7 77.2,65.7 77.3,64.7 76,64.7 76.1,63.9 77.4,63.9 77.5,63 
			76.2,63 76.4,62.2 77.7,62.2 		"/>
		<polygon class="st0" points="82.4,64.7 85.1,61.2 81.4,61.2 81.2,62.2 83,62.2 80.3,65.7 84.1,65.7 84.3,64.7 82.4,64.7 		"/>
		<path class="st0" d="M88.2,61.2l-0.4,2.4c-0.1,0.6-0.2,1.2-1,1.2c-0.7,0-0.7-0.6-0.6-1.2l0.4-2.4h-1.2l-0.4,2.5
			c-0.1,0.6-0.2,1.1,0.2,1.6c0.3,0.4,0.9,0.5,1.4,0.5c0.5,0,1.1-0.1,1.6-0.5c0.5-0.4,0.6-1,0.7-1.6l0.4-2.5H88.2L88.2,61.2z"/>
		<path class="st1" d="M99.9,63.2h0.2c0.5,0,1.3-0.1,1.2,0.6c-0.1,0.7-0.9,0.6-1.3,0.6h-0.2L99.9,63.2L99.9,63.2z M100.3,65.7
			c1.1,0,2.2-0.4,2.4-1.7c0.1-0.8-0.1-1.4-1-1.5l0,0c0.5-0.2,0.8-0.7,0.8-1.2c0.2-1.1-0.5-1.5-1.5-1.5h-2.2l-0.9,6H100.3L100.3,65.7
			z M100.3,60.9h0.1c0.4,0,0.9,0,0.8,0.6c-0.1,0.5-0.5,0.6-0.9,0.6h-0.2L100.3,60.9L100.3,60.9z"/>
		<polygon class="st0" points="106.3,62.2 106.4,61.2 103.9,61.2 103.2,65.7 105.7,65.7 105.9,64.7 104.5,64.7 104.6,63.9 
			105.9,63.9 106.1,63 104.8,63 104.9,62.2 106.3,62.2 		"/>
		<path class="st0" d="M110,61.5c-0.4-0.2-0.9-0.4-1.3-0.4c-0.9,0-1.6,0.6-1.8,1.5c-0.1,0.9,0.3,1.1,1,1.3c0.2,0.1,0.7,0.2,0.6,0.5
			c0,0.3-0.4,0.4-0.6,0.4c-0.4,0-0.7-0.2-1-0.5l-0.6,0.9c0.4,0.3,0.9,0.5,1.5,0.5c0.5,0,0.9-0.1,1.3-0.4c0.4-0.3,0.6-0.8,0.7-1.2
			c0.1-0.7-0.3-1-0.9-1.2l-0.3-0.1c-0.2-0.1-0.5-0.2-0.4-0.4c0-0.2,0.3-0.4,0.6-0.4c0.3,0,0.5,0.1,0.7,0.3L110,61.5L110,61.5z"/>
		<polygon class="st0" points="112.4,62.2 113.4,62.2 113.5,61.2 110.4,61.2 110.3,62.2 111.2,62.2 110.7,65.7 111.8,65.7 
			112.4,62.2 		"/>
		<path class="st1" d="M113.2,65.7h1.2l0.2-1.5h0.7c1,0,1.7-0.5,1.8-1.5c0.2-1-0.4-1.5-1.4-1.5h-1.8L113.2,65.7L113.2,65.7z
			 M114.9,62.2h0.2c0.5,0,0.8,0,0.7,0.6c-0.1,0.5-0.5,0.5-0.9,0.5h-0.2L114.9,62.2L114.9,62.2z"/>
		<path class="st1" d="M119.7,63.9c0.7-0.1,1.1-0.6,1.2-1.3c0.2-1-0.5-1.4-1.3-1.4h-1.7l-0.7,4.5h1.2l0.3-1.7h0l0.8,1.7h1.4
			L119.7,63.9L119.7,63.9z M118.9,62.1h0.1c0.4,0,0.8,0.1,0.7,0.6c-0.1,0.5-0.5,0.6-0.9,0.6h-0.1L118.9,62.1L118.9,62.1z"/>
		<polygon class="st0" points="124.3,62.2 124.4,61.2 121.9,61.2 121.2,65.7 123.7,65.7 123.9,64.7 122.5,64.7 122.6,63.9 
			123.9,63.9 124.1,63 122.8,63 122.9,62.2 124.3,62.2 		"/>
		<polygon class="st0" points="126.3,61.2 125.1,61.2 124.4,65.7 125.6,65.7 126.3,61.2 		"/>
		<path class="st0" d="M129.9,61.5c-0.4-0.2-0.9-0.4-1.3-0.4c-0.9,0-1.6,0.6-1.8,1.5c-0.1,0.9,0.3,1.1,1,1.3
			c0.2,0.1,0.7,0.2,0.6,0.5c0,0.3-0.4,0.4-0.6,0.4c-0.4,0-0.7-0.2-1-0.5l-0.6,0.9c0.4,0.3,0.9,0.5,1.5,0.5c0.5,0,0.9-0.1,1.3-0.4
			c0.4-0.3,0.6-0.8,0.7-1.2c0.1-0.7-0.3-1-0.9-1.2l-0.3-0.1c-0.2-0.1-0.5-0.2-0.4-0.4c0-0.2,0.3-0.4,0.6-0.4c0.3,0,0.5,0.1,0.7,0.3
			L129.9,61.5L129.9,61.5z"/>
		<polygon class="st0" points="89.2,65.7 90.3,65.7 91.1,63.1 91.1,63.1 91.7,65.7 92.2,65.7 93.7,63.1 93.7,63.1 93.6,65.7 
			94.8,65.7 94.8,61.2 93.6,61.2 92.3,63.6 91.8,61.2 90.6,61.2 89.2,65.7 		"/>
	</g>
</g>
</svg>
