<?xml version="1.0" encoding="utf-8"?>
<!-- Generator: Adobe Illustrator 24.3.0, SVGIcon Export Plug-In . SVGIcon Version: 6.00 Build 0)  -->
<svg version="1.1" id="Ebene_1" xmlns="http://www.w3.org/2000/svg" xmlns:xlink="http://www.w3.org/1999/xlink" x="0px" y="0px"
	 viewBox="0 0 210 100" style="enable-background:new 0 0 210 100;" xml:space="preserve">
<style type="text/css">
	.st0{fill:#E6E5E6;}
</style>
<path class="st0" d="M168.5,55c2.4,1.2,4.8,1.8,6.4,1.7c1.1-0.1,3.5-0.8,6.1-1.7c3.5-1.3,7.4-3.2,9.9-5.2c1.6-1.3,2.6-2.7,2.4-4
	c-0.5-3.8-10.1-7.1-17.7-8c-3.6-0.5-6.7-0.3-8.2,0.4c-2,0.9-2.9,1.8-3.8,3c-0.1,0.2-0.3,0.4-0.5,0.6c-0.7,1-1.4,2-1.8,3.1
	c-0.3,0.8-0.4,1.7-0.3,2.8c0.2,2.5,3.1,5,6.3,6.8l0,0 M158.6,51c-1.6-1.3-2.5-2.7-2.3-4.2c0-0.2,0-0.3,0.1-0.5
	c0.5-2.1,2.2-3.8,4.2-5.6c2.2-2,2.1-3.4,5.5-4.4c7-2.1,30.9,3.6,30.9,9.4c0,3.2-4.9,5.7-10.2,8.1c-4.3,2-8.8,4.4-11.6,4.4
	C171.4,58.2,162.6,54.7,158.6,51"/>
<path class="st0" d="M190,44.2c-3.3-3-9.5-5.8-13.9-6.4c-1-0.1-2.2-0.1-3,0c-2.6,0.4-5,1.4-6.9,2.7l0,0c-2.1,1.3-3.7,2.9-4.8,4.5
	c-1.1,1.5-1.7,3-1.7,4.2c0,2.6,2.4,4.5,7.6,5.4c2.3,0.4,5.3,0.8,8.5,0.7c9.6-0.2,16.7-4.5,15.9-8.4c-0.3-1.2-1.1-2.3-2.2-3.2
	 M169.5,53c-2.2-1-3.7-2.4-3.7-4.1c0-2.4,2.1-5.5,5.3-7.4c1.2-0.7,2.5-1.3,4-1.6c0.3-0.1,0.5-0.1,0.8-0.1c1.8-0.2,4,0.2,6.1,0.9
	c2.7,0.9,5.3,2.3,7,3.9l-0.5-0.4c1.5,1.2,1.9,2.7,1.8,3.8c-0.4,2.8-6,6.3-15.2,6.2C173.4,54.1,171.3,53.8,169.5,53z"/>
<path class="st0" d="M165.9,40.6c-0.8,0.2-1.7,0.4-2.5,0.7c-3.7,1.2-6.6,3.1-7.1,5.2c0,0.1-0.1,0.3-0.1,0.4c-0.1,1.4,0.7,2.8,2.3,4
	c2.2,1.7,5.7,3.2,9.9,3.8c2,0.3,4.1,0.5,6.3,0.5c2.3,0,4.3-0.2,6.2-0.5c5.1-1,8.5-2.9,10-5.1c0.4-0.6,0.5-1.3,0.5-2
	c0-1.3-0.8-2.3-2.3-3.5c-0.1-0.1-0.3-0.2-0.4-0.3v0c-1.7-1.4-4.4-2.4-7.3-3l0,0l0,0c-2-0.4-4-0.7-6-0.9c-0.3,0-0.6,0-0.9-0.1
	c-2.7-0.2-5.6,0.1-8.3,0.7C166.1,40.6,166,40.6,165.9,40.6 M169,52.6L169,52.6c-5-1.3-7.3-3.9-7.1-5.5c0.2-1.7,2.7-4.5,8.8-5.5
	c1.4-0.2,2.9-0.4,4.7-0.4c9.5-0.2,14.6,3.8,14.2,6.6c-0.4,2.7-6,6-14.9,5.7C172.4,53.3,170.5,53,169,52.6L169,52.6"/>
<g>
	<path class="st0" d="M20.9,58c-0.1,0-0.2,0.1-0.3,0.1c-0.1,0-0.2,0.1-0.4,0.1c-0.2,0-0.3,0.1-0.5,0.1c-0.2,0-0.4,0-0.6,0
		c-0.2,0-0.4,0-0.6-0.1c-0.2,0-0.4-0.1-0.5-0.2c-0.1-0.1-0.3-0.2-0.4-0.3c-0.1-0.1-0.1-0.2-0.1-0.3c0-0.2,0.1-0.3,0.2-0.4
		c0.2-0.1,0.4-0.2,0.8-0.3c0.3-0.1,0.7-0.1,1.1-0.1c0.4,0,0.9,0,1.4-0.1v-0.1c0-0.1,0-0.2-0.1-0.2c-0.1-0.1-0.2-0.1-0.3-0.1
		c-0.1,0-0.3-0.1-0.4-0.1c-0.2,0-0.3,0-0.5,0c-0.2,0-0.5,0-0.8,0c-0.3,0-0.6,0.1-0.9,0.1h-0.1v-0.4c0.2,0,0.4,0,0.7-0.1
		c0.3,0,0.6,0,0.9,0c0.4,0,0.7,0,1,0c0.3,0,0.5,0.1,0.7,0.1c0.2,0.1,0.3,0.2,0.4,0.3c0.1,0.1,0.1,0.2,0.1,0.4v1.7h-0.9V58z
		 M20.9,57.7V57c-0.2,0-0.5,0-0.8,0c-0.3,0-0.6,0-0.8,0.1c-0.2,0-0.5,0.1-0.6,0.2c-0.2,0.1-0.2,0.2-0.2,0.3c0,0.1,0.1,0.3,0.3,0.3
		c0.2,0.1,0.4,0.1,0.8,0.1c0.3,0,0.6,0,0.8-0.1C20.5,57.8,20.7,57.7,20.9,57.7z"/>
	<path class="st0" d="M26.6,56.2L26.6,56.2c-0.1,0-0.2,0-0.3,0c-0.1,0-0.2,0-0.3,0c-0.2,0-0.5,0-0.7,0.1c-0.2,0-0.5,0.1-0.7,0.2v1.8
		h-0.9v-2.5h0.9v0.4c0.3-0.1,0.6-0.2,0.9-0.3c0.3-0.1,0.5-0.1,0.7-0.1c0.1,0,0.2,0,0.2,0c0,0,0.1,0,0.2,0V56.2z"/>
	<path class="st0" d="M30.1,58.3c-0.4,0-0.7,0-1-0.1c-0.3-0.1-0.6-0.1-0.8-0.2c-0.2-0.1-0.4-0.2-0.5-0.4c-0.1-0.2-0.2-0.4-0.2-0.6
		c0-0.2,0.1-0.4,0.2-0.6c0.1-0.2,0.3-0.3,0.5-0.4c0.2-0.1,0.5-0.2,0.8-0.3c0.3-0.1,0.7-0.1,1-0.1c0.3,0,0.6,0,0.9,0.1
		c0.3,0,0.5,0.1,0.8,0.1v0.5h-0.1c-0.1,0-0.2-0.1-0.3-0.1c-0.1,0-0.2-0.1-0.4-0.1c-0.1,0-0.3-0.1-0.5-0.1s-0.3,0-0.5,0
		c-0.5,0-0.9,0.1-1.2,0.2c-0.3,0.2-0.4,0.4-0.4,0.7c0,0.3,0.1,0.5,0.4,0.7c0.3,0.2,0.7,0.2,1.2,0.2c0.3,0,0.6,0,0.9-0.1
		c0.3-0.1,0.5-0.1,0.7-0.2h0.1v0.5c-0.1,0-0.2,0-0.3,0.1c-0.1,0-0.3,0-0.4,0.1c-0.2,0-0.3,0-0.4,0C30.5,58.3,30.3,58.3,30.1,58.3z"
		/>
	<path class="st0" d="M37.6,58.3h-0.9v-1.4c0-0.1,0-0.2,0-0.3c0-0.1-0.1-0.2-0.1-0.2c-0.1-0.1-0.2-0.1-0.3-0.1c-0.1,0-0.3,0-0.6,0
		c-0.2,0-0.5,0-0.7,0.1c-0.2,0.1-0.5,0.1-0.7,0.2v1.9h-0.9v-3.5h0.9V56c0.3-0.1,0.5-0.2,0.8-0.3c0.3-0.1,0.6-0.1,0.9-0.1
		c0.5,0,1,0.1,1.3,0.2c0.3,0.2,0.5,0.4,0.5,0.7V58.3z"/>
	<path class="st0" d="M40.4,55.3h-1.1v-0.4h1.1V55.3z M40.3,58.3h-0.9v-2.5h0.9V58.3z"/>
	<path class="st0" d="M43.9,58.3c-0.5,0-0.9-0.1-1.2-0.2c-0.3-0.1-0.4-0.3-0.4-0.6v-1.4h-0.6v-0.3h0.6V55h0.9v0.7h1.7v0.3h-1.7v1.2
		c0,0.1,0,0.2,0,0.3c0,0.1,0,0.1,0.1,0.2c0.1,0.1,0.1,0.1,0.3,0.1c0.1,0,0.3,0,0.5,0c0.2,0,0.3,0,0.4,0c0.1,0,0.2,0,0.3-0.1h0.1v0.4
		c-0.2,0-0.4,0-0.5,0.1C44.2,58.3,44,58.3,43.9,58.3z"/>
	<path class="st0" d="M48.6,58.3c-0.9,0-1.6-0.1-2-0.3c-0.5-0.2-0.7-0.5-0.7-1c0-0.4,0.2-0.7,0.7-1c0.5-0.2,1.1-0.4,1.8-0.4
		c0.3,0,0.6,0,0.9,0.1c0.3,0,0.5,0.1,0.7,0.2c0.2,0.1,0.3,0.2,0.5,0.4c0.1,0.1,0.2,0.3,0.2,0.5v0.2h-3.8c0,0.3,0.2,0.5,0.5,0.7
		c0.3,0.2,0.8,0.2,1.3,0.2c0.2,0,0.4,0,0.6,0c0.2,0,0.4,0,0.5-0.1c0.2,0,0.3-0.1,0.4-0.1c0.1,0,0.2-0.1,0.3-0.1h0.1v0.5
		c-0.1,0-0.2,0-0.4,0.1c-0.2,0-0.3,0.1-0.4,0.1c-0.2,0-0.3,0-0.5,0.1C49,58.3,48.8,58.3,48.6,58.3z M49.7,56.7c0-0.1,0-0.2-0.1-0.3
		c-0.1-0.1-0.1-0.2-0.2-0.2c-0.1-0.1-0.2-0.1-0.4-0.1c-0.2,0-0.4,0-0.6,0c-0.2,0-0.5,0-0.6,0.1c-0.2,0-0.3,0.1-0.5,0.1
		c-0.1,0.1-0.2,0.1-0.3,0.2c-0.1,0.1-0.1,0.2-0.1,0.3H49.7z"/>
	<path class="st0" d="M54.4,58.3c-0.4,0-0.7,0-1-0.1c-0.3-0.1-0.6-0.1-0.8-0.2c-0.2-0.1-0.4-0.2-0.5-0.4c-0.1-0.2-0.2-0.4-0.2-0.6
		c0-0.2,0.1-0.4,0.2-0.6c0.1-0.2,0.3-0.3,0.5-0.4c0.2-0.1,0.5-0.2,0.8-0.3c0.3-0.1,0.7-0.1,1-0.1c0.3,0,0.6,0,0.9,0.1
		c0.3,0,0.5,0.1,0.8,0.1v0.5h-0.1c-0.1,0-0.2-0.1-0.3-0.1c-0.1,0-0.2-0.1-0.4-0.1c-0.1,0-0.3-0.1-0.5-0.1c-0.2,0-0.3,0-0.5,0
		c-0.5,0-0.9,0.1-1.2,0.2c-0.3,0.2-0.4,0.4-0.4,0.7c0,0.3,0.1,0.5,0.4,0.7c0.3,0.2,0.7,0.2,1.2,0.2c0.3,0,0.6,0,0.9-0.1
		c0.3-0.1,0.5-0.1,0.7-0.2H56v0.5c-0.1,0-0.2,0-0.3,0.1c-0.1,0-0.3,0-0.4,0.1c-0.2,0-0.3,0-0.4,0C54.7,58.3,54.6,58.3,54.4,58.3z"/>
	<path class="st0" d="M59.3,58.3c-0.5,0-0.9-0.1-1.2-0.2c-0.3-0.1-0.4-0.3-0.4-0.6v-1.4h-0.6v-0.3h0.6V55h0.9v0.7h1.7v0.3h-1.7v1.2
		c0,0.1,0,0.2,0,0.3c0,0.1,0,0.1,0.1,0.2c0.1,0.1,0.1,0.1,0.3,0.1c0.1,0,0.3,0,0.5,0c0.2,0,0.3,0,0.4,0c0.1,0,0.2,0,0.3-0.1h0.1v0.4
		c-0.2,0-0.4,0-0.5,0.1C59.6,58.3,59.5,58.3,59.3,58.3z"/>
	<path class="st0" d="M65.9,58.3H65V58c-0.3,0.1-0.6,0.2-0.8,0.3c-0.3,0.1-0.5,0.1-0.9,0.1c-0.2,0-0.5,0-0.7-0.1
		c-0.2,0-0.4-0.1-0.6-0.2c-0.2-0.1-0.3-0.2-0.4-0.3c-0.1-0.1-0.1-0.3-0.1-0.4v-1.6h0.9v1.4c0,0.1,0,0.2,0,0.3c0,0.1,0.1,0.2,0.1,0.2
		c0.1,0.1,0.2,0.1,0.3,0.1c0.1,0,0.3,0,0.6,0c0.2,0,0.5,0,0.7-0.1c0.3-0.1,0.5-0.1,0.7-0.2v-1.9h0.9V58.3z"/>
	<path class="st0" d="M70.7,56.2L70.7,56.2c-0.1,0-0.2,0-0.3,0c-0.1,0-0.2,0-0.3,0c-0.2,0-0.5,0-0.7,0.1c-0.2,0-0.5,0.1-0.7,0.2v1.8
		h-0.9v-2.5h0.9v0.4c0.3-0.1,0.6-0.2,0.9-0.3c0.3-0.1,0.5-0.1,0.7-0.1c0.1,0,0.2,0,0.2,0c0,0,0.1,0,0.2,0V56.2z"/>
	<path class="st0" d="M80.6,57c0,0.4-0.2,0.7-0.7,1c-0.4,0.2-1,0.3-1.8,0.3c-0.8,0-1.4-0.1-1.8-0.4c-0.4-0.2-0.7-0.6-0.7-1
		c0-0.4,0.2-0.7,0.7-1c0.5-0.2,1-0.3,1.8-0.3c0.7,0,1.3,0.1,1.8,0.3C80.4,56.3,80.6,56.6,80.6,57z M79.7,57c0-0.3-0.1-0.6-0.4-0.7
		c-0.3-0.2-0.6-0.2-1.1-0.2c-0.5,0-0.9,0.1-1.1,0.2c-0.3,0.2-0.4,0.4-0.4,0.7c0,0.3,0.1,0.6,0.4,0.7c0.3,0.2,0.6,0.2,1.1,0.2
		c0.5,0,0.8-0.1,1.1-0.2C79.5,57.6,79.7,57.3,79.7,57z"/>
	<path class="st0" d="M86.8,57c0,0.4-0.2,0.7-0.7,1c-0.4,0.2-1,0.4-1.6,0.4c-0.3,0-0.6,0-0.8-0.1c-0.2,0-0.4-0.1-0.6-0.1L83,58.3
		h-0.9v-3.5h0.9V56c0.2-0.1,0.5-0.2,0.8-0.2c0.3-0.1,0.6-0.1,0.9-0.1c0.6,0,1.1,0.1,1.5,0.3C86.6,56.3,86.8,56.6,86.8,57z M85.8,57
		c0-0.3-0.1-0.5-0.3-0.7c-0.2-0.2-0.5-0.2-1-0.2c-0.3,0-0.5,0-0.8,0.1c-0.3,0.1-0.5,0.1-0.7,0.2v1.4c0.2,0.1,0.4,0.1,0.6,0.1
		c0.2,0,0.4,0,0.6,0c0.5,0,0.8-0.1,1.1-0.2C85.7,57.6,85.8,57.3,85.8,57z"/>
	<path class="st0" d="M89.7,58.3c0,0.3-0.2,0.5-0.5,0.7c-0.3,0.1-0.8,0.2-1.4,0.2c-0.1,0-0.2,0-0.3,0c-0.1,0-0.3,0-0.4,0v-0.4h0.1
		c0.1,0,0.2,0,0.2,0c0.1,0,0.2,0,0.2,0c0.2,0,0.4,0,0.6,0c0.2,0,0.3-0.1,0.4-0.1c0.1-0.1,0.1-0.1,0.1-0.2c0-0.1,0-0.2,0-0.3v-2.1h-1
		v-0.3h1.9V58.3z M89.8,55.3h-1.1v-0.4h1.1V55.3z"/>
	<path class="st0" d="M94.1,58.3c-0.9,0-1.6-0.1-2-0.3c-0.5-0.2-0.7-0.5-0.7-1c0-0.4,0.2-0.7,0.7-1c0.5-0.2,1.1-0.4,1.8-0.4
		c0.3,0,0.6,0,0.9,0.1c0.3,0,0.5,0.1,0.7,0.2c0.2,0.1,0.3,0.2,0.5,0.4c0.1,0.1,0.2,0.3,0.2,0.5v0.2h-3.8c0,0.3,0.2,0.5,0.5,0.7
		C93,57.9,93.5,58,94,58c0.2,0,0.4,0,0.6,0c0.2,0,0.4,0,0.5-0.1c0.2,0,0.3-0.1,0.4-0.1c0.1,0,0.2-0.1,0.3-0.1h0.1v0.5
		c-0.1,0-0.2,0-0.4,0.1c-0.2,0-0.3,0.1-0.4,0.1c-0.2,0-0.3,0-0.5,0.1C94.5,58.3,94.3,58.3,94.1,58.3z M95.1,56.7
		c0-0.1,0-0.2-0.1-0.3c-0.1-0.1-0.1-0.2-0.2-0.2c-0.1-0.1-0.2-0.1-0.4-0.1c-0.2,0-0.4,0-0.6,0c-0.2,0-0.5,0-0.6,0.1
		c-0.2,0-0.3,0.1-0.5,0.1c-0.1,0.1-0.2,0.1-0.3,0.2c-0.1,0.1-0.1,0.2-0.1,0.3H95.1z"/>
	<path class="st0" d="M99.8,58.3c-0.4,0-0.7,0-1-0.1c-0.3-0.1-0.6-0.1-0.8-0.2c-0.2-0.1-0.4-0.2-0.5-0.4c-0.1-0.2-0.2-0.4-0.2-0.6
		c0-0.2,0.1-0.4,0.2-0.6c0.1-0.2,0.3-0.3,0.5-0.4c0.2-0.1,0.5-0.2,0.8-0.3c0.3-0.1,0.7-0.1,1-0.1c0.3,0,0.6,0,0.9,0.1
		c0.3,0,0.5,0.1,0.8,0.1v0.5h-0.1c-0.1,0-0.2-0.1-0.3-0.1c-0.1,0-0.2-0.1-0.4-0.1c-0.1,0-0.3-0.1-0.5-0.1c-0.2,0-0.3,0-0.5,0
		c-0.5,0-0.9,0.1-1.2,0.2c-0.3,0.2-0.4,0.4-0.4,0.7c0,0.3,0.1,0.5,0.4,0.7c0.3,0.2,0.7,0.2,1.2,0.2c0.3,0,0.6,0,0.9-0.1
		c0.3-0.1,0.5-0.1,0.7-0.2h0.1v0.5c-0.1,0-0.2,0-0.3,0.1c-0.1,0-0.3,0-0.4,0.1c-0.2,0-0.3,0-0.4,0C100.2,58.3,100,58.3,99.8,58.3z"
		/>
	<path class="st0" d="M104.8,58.3c-0.5,0-0.9-0.1-1.2-0.2c-0.3-0.1-0.4-0.3-0.4-0.6v-1.4h-0.6v-0.3h0.6V55h0.9v0.7h1.7v0.3h-1.7v1.2
		c0,0.1,0,0.2,0,0.3c0,0.1,0,0.1,0.1,0.2c0.1,0.1,0.1,0.1,0.3,0.1c0.1,0,0.3,0,0.5,0c0.2,0,0.3,0,0.4,0c0.1,0,0.2,0,0.3-0.1h0.1v0.4
		c-0.2,0-0.4,0-0.5,0.1C105.1,58.3,104.9,58.3,104.8,58.3z"/>
	<path class="st0" d="M113.4,58.3c-0.4,0-0.7,0-1-0.1c-0.3-0.1-0.6-0.1-0.8-0.2c-0.2-0.1-0.4-0.2-0.5-0.4c-0.1-0.2-0.2-0.4-0.2-0.6
		c0-0.2,0.1-0.4,0.2-0.6c0.1-0.2,0.3-0.3,0.5-0.4c0.2-0.1,0.5-0.2,0.8-0.3c0.3-0.1,0.7-0.1,1-0.1c0.3,0,0.6,0,0.9,0.1
		c0.3,0,0.5,0.1,0.8,0.1v0.5h-0.1c-0.1,0-0.2-0.1-0.3-0.1c-0.1,0-0.2-0.1-0.4-0.1c-0.1,0-0.3-0.1-0.5-0.1c-0.2,0-0.3,0-0.5,0
		c-0.5,0-0.9,0.1-1.2,0.2c-0.3,0.2-0.4,0.4-0.4,0.7c0,0.3,0.1,0.5,0.4,0.7c0.3,0.2,0.7,0.2,1.2,0.2c0.3,0,0.6,0,0.9-0.1
		c0.3-0.1,0.5-0.1,0.7-0.2h0.1v0.5c-0.1,0-0.2,0-0.3,0.1c-0.1,0-0.3,0-0.4,0.1c-0.2,0-0.3,0-0.4,0C113.7,58.3,113.6,58.3,113.4,58.3
		z"/>
	<path class="st0" d="M121,57c0,0.4-0.2,0.7-0.7,1c-0.4,0.2-1,0.3-1.8,0.3c-0.8,0-1.4-0.1-1.8-0.4c-0.4-0.2-0.7-0.6-0.7-1
		c0-0.4,0.2-0.7,0.7-1c0.5-0.2,1-0.3,1.8-0.3c0.7,0,1.3,0.1,1.8,0.3C120.8,56.3,121,56.6,121,57z M120,57c0-0.3-0.1-0.6-0.4-0.7
		c-0.3-0.2-0.6-0.2-1.1-0.2c-0.5,0-0.9,0.1-1.1,0.2c-0.3,0.2-0.4,0.4-0.4,0.7c0,0.3,0.1,0.6,0.4,0.7c0.3,0.2,0.6,0.2,1.1,0.2
		c0.5,0,0.8-0.1,1.1-0.2C119.9,57.6,120,57.3,120,57z"/>
	<path class="st0" d="M126.9,58.3H126v-1.4c0-0.1,0-0.2,0-0.3c0-0.1-0.1-0.2-0.1-0.2c-0.1-0.1-0.2-0.1-0.3-0.1c-0.1,0-0.3,0-0.6,0
		c-0.2,0-0.5,0-0.7,0.1c-0.2,0.1-0.5,0.1-0.7,0.2v1.9h-0.9v-2.5h0.9V56c0.3-0.1,0.5-0.2,0.8-0.3c0.3-0.1,0.6-0.1,0.9-0.1
		c0.5,0,1,0.1,1.3,0.2c0.3,0.2,0.5,0.4,0.5,0.7V58.3z"/>
	<path class="st0" d="M131,58.3c-0.4,0-0.7,0-1-0.1c-0.3-0.1-0.6-0.1-0.8-0.2c-0.2-0.1-0.4-0.2-0.5-0.4c-0.1-0.2-0.2-0.4-0.2-0.6
		c0-0.2,0.1-0.4,0.2-0.6c0.1-0.2,0.3-0.3,0.5-0.4c0.2-0.1,0.5-0.2,0.8-0.3c0.3-0.1,0.7-0.1,1-0.1c0.3,0,0.6,0,0.9,0.1
		c0.3,0,0.5,0.1,0.8,0.1v0.5h-0.1c-0.1,0-0.2-0.1-0.3-0.1c-0.1,0-0.2-0.1-0.4-0.1c-0.1,0-0.3-0.1-0.5-0.1c-0.2,0-0.3,0-0.5,0
		c-0.5,0-0.9,0.1-1.2,0.2c-0.3,0.2-0.4,0.4-0.4,0.7c0,0.3,0.1,0.5,0.4,0.7c0.3,0.2,0.7,0.2,1.2,0.2c0.3,0,0.6,0,0.9-0.1
		c0.3-0.1,0.5-0.1,0.7-0.2h0.1v0.5c-0.1,0-0.2,0-0.3,0.1c-0.1,0-0.3,0-0.4,0.1c-0.2,0-0.3,0-0.4,0C131.3,58.3,131.2,58.3,131,58.3z"
		/>
	<path class="st0" d="M136.5,58.3c-0.9,0-1.6-0.1-2-0.3c-0.5-0.2-0.7-0.5-0.7-1c0-0.4,0.2-0.7,0.7-1c0.5-0.2,1.1-0.4,1.8-0.4
		c0.3,0,0.6,0,0.9,0.1c0.3,0,0.5,0.1,0.7,0.2c0.2,0.1,0.3,0.2,0.5,0.4c0.1,0.1,0.2,0.3,0.2,0.5v0.2h-3.8c0,0.3,0.2,0.5,0.5,0.7
		s0.8,0.2,1.3,0.2c0.2,0,0.4,0,0.6,0c0.2,0,0.4,0,0.5-0.1c0.2,0,0.3-0.1,0.4-0.1c0.1,0,0.2-0.1,0.3-0.1h0.1v0.5
		c-0.1,0-0.2,0-0.4,0.1c-0.2,0-0.3,0.1-0.4,0.1c-0.2,0-0.3,0-0.5,0.1C136.9,58.3,136.7,58.3,136.5,58.3z M137.5,56.7
		c0-0.1,0-0.2-0.1-0.3c-0.1-0.1-0.1-0.2-0.2-0.2c-0.1-0.1-0.2-0.1-0.4-0.1c-0.2,0-0.4,0-0.6,0c-0.2,0-0.5,0-0.6,0.1
		c-0.2,0-0.3,0.1-0.5,0.1c-0.1,0.1-0.2,0.1-0.3,0.2c-0.1,0.1-0.1,0.2-0.1,0.3H137.5z"/>
	<path class="st0" d="M144.6,57c0,0.4-0.2,0.7-0.7,1c-0.4,0.2-1,0.4-1.7,0.4c-0.3,0-0.5,0-0.7,0c-0.2,0-0.4-0.1-0.6-0.1v1H140v-3.4
		h0.9V56c0.2-0.1,0.5-0.2,0.8-0.2c0.3-0.1,0.6-0.1,0.9-0.1c0.6,0,1.1,0.1,1.5,0.3C144.5,56.3,144.6,56.6,144.6,57z M143.7,57
		c0-0.3-0.1-0.5-0.3-0.7c-0.2-0.2-0.5-0.2-1-0.2c-0.3,0-0.5,0-0.8,0.1c-0.2,0.1-0.5,0.1-0.7,0.2v1.4c0.2,0.1,0.5,0.1,0.6,0.1
		c0.2,0,0.4,0,0.6,0c0.5,0,0.9-0.1,1.1-0.2C143.6,57.5,143.7,57.3,143.7,57z"/>
	<path class="st0" d="M147.9,58.3c-0.5,0-0.9-0.1-1.2-0.2c-0.3-0.1-0.4-0.3-0.4-0.6v-1.4h-0.6v-0.3h0.6V55h0.9v0.7h1.7v0.3h-1.7v1.2
		c0,0.1,0,0.2,0,0.3c0,0.1,0,0.1,0.1,0.2c0.1,0.1,0.1,0.1,0.3,0.1c0.1,0,0.3,0,0.5,0c0.2,0,0.3,0,0.4,0c0.1,0,0.2,0,0.3-0.1h0.1v0.4
		c-0.2,0-0.4,0-0.5,0.1C148.2,58.3,148,58.3,147.9,58.3z"/>
</g>
<g>
	<path class="st0" d="M35.4,50.4h-3.8v-1.2c-1.2,0.5-2.3,0.8-3.4,1.1c-1.1,0.2-2.3,0.4-3.6,0.4c-1,0-1.9-0.1-2.8-0.2
		c-0.9-0.1-1.6-0.4-2.3-0.7c-0.7-0.3-1.2-0.7-1.5-1.2c-0.4-0.5-0.5-1.1-0.5-1.8v-6.7h3.8V46c0,0.6,0,1,0.1,1.4
		c0.1,0.4,0.3,0.7,0.6,1c0.3,0.3,0.7,0.5,1.3,0.6c0.5,0.1,1.3,0.2,2.3,0.2c0.9,0,1.9-0.1,3-0.4c1.1-0.2,2-0.5,2.9-0.9v-7.8h3.8V50.4
		z"/>
	<path class="st0" d="M68.8,50.4v-6c0-0.5,0-0.9-0.1-1.3c-0.1-0.4-0.3-0.7-0.5-1c-0.3-0.2-0.7-0.4-1.2-0.5c-0.5-0.1-1.2-0.2-2-0.2
		c-0.8,0-1.6,0.1-2.5,0.3c-0.9,0.2-1.8,0.5-2.8,1c0,0.1,0,0.2,0.1,0.4c0,0.1,0,0.3,0,0.5v6.8h-3.8v-6c0-0.5,0-0.9-0.1-1.3
		c-0.1-0.4-0.3-0.7-0.5-1c-0.3-0.2-0.7-0.4-1.2-0.5c-0.5-0.1-1.2-0.2-2-0.2c-0.8,0-1.7,0.1-2.6,0.4c-0.9,0.2-1.8,0.5-2.7,0.9v7.8
		h-3.8V40.1h3.8v1.2c1-0.5,2-0.8,3-1.1c1-0.3,2.1-0.4,3.3-0.4c1.4,0,2.5,0.1,3.6,0.4c1,0.3,1.8,0.7,2.4,1.4c1.2-0.6,2.3-1,3.4-1.3
		c1.1-0.3,2.3-0.5,3.6-0.5c1,0,1.9,0.1,2.7,0.2c0.8,0.1,1.5,0.4,2.1,0.7c0.6,0.3,1.1,0.7,1.4,1.2c0.3,0.5,0.5,1.1,0.5,1.8v6.8H68.8z
		"/>
	<path class="st0" d="M91.8,37.6h-0.2c-0.3-0.1-0.8-0.1-1.5-0.2c-0.6-0.1-1.2-0.1-1.7-0.1c-1.6,0-2.8,0.2-3.5,0.5
		c-0.7,0.3-1,0.9-1,1.8v0.4h6.4v1.5H84v8.9h-3.8v-8.9h-2.6v-1.5h2.6v-0.3c0-1.3,0.7-2.2,2-2.9c1.3-0.7,3.2-1,5.7-1
		c0.7,0,1.4,0,2.1,0.1c0.7,0,1.3,0.1,1.9,0.1V37.6z"/>
	<path class="st0" d="M105,50.7c-3.6,0-6.5-0.5-8.5-1.4c-2-0.9-3-2.3-3-4c0-1.7,1-3,2.9-4c2-1,4.5-1.5,7.7-1.5
		c1.4,0,2.7,0.1,3.8,0.3c1.1,0.2,2,0.5,2.9,0.9c0.8,0.4,1.4,0.9,1.9,1.5c0.4,0.6,0.7,1.3,0.7,2.1v0.9H97.4c0,1.2,0.7,2.1,2,2.8
		c1.3,0.6,3.2,1,5.5,1c0.8,0,1.7,0,2.5-0.1c0.8-0.1,1.5-0.2,2.2-0.3c0.7-0.1,1.3-0.3,1.8-0.4c0.5-0.1,0.9-0.3,1.2-0.4h0.2v1.9
		c-0.4,0.1-1,0.2-1.7,0.3c-0.7,0.1-1.3,0.2-1.8,0.3c-0.8,0.1-1.4,0.2-2,0.2C106.7,50.7,106,50.7,105,50.7z M109.5,44.1
		c0-0.5-0.2-0.9-0.4-1.2c-0.2-0.3-0.5-0.6-0.9-0.9c-0.5-0.3-1-0.5-1.7-0.6c-0.7-0.1-1.6-0.2-2.6-0.2c-1,0-1.9,0.1-2.6,0.2
		c-0.7,0.1-1.4,0.3-2,0.6c-0.6,0.3-1,0.6-1.3,0.9c-0.3,0.3-0.5,0.7-0.6,1.2H109.5z"/>
	<path class="st0" d="M123.5,50.4h-3.8V36h3.8V50.4z"/>
	<path class="st0" d="M148.9,50.4H145v-1.1c-0.6,0.2-1.1,0.4-1.6,0.6c-0.4,0.1-0.9,0.3-1.5,0.4c-0.5,0.1-1.1,0.2-1.7,0.3
		c-0.6,0.1-1.3,0.1-2,0.1c-1.2,0-2.4-0.1-3.4-0.4c-1.1-0.2-2-0.6-2.7-1c-0.8-0.5-1.3-1-1.7-1.7c-0.4-0.7-0.6-1.4-0.6-2.3
		c0-0.9,0.3-1.7,0.8-2.4c0.5-0.7,1.2-1.2,2.1-1.7c0.8-0.5,1.8-0.8,3-1.1c1.2-0.3,2.4-0.4,3.7-0.4c1.1,0,2.1,0.1,3,0.2
		c0.8,0.1,1.7,0.3,2.7,0.5V36h3.8V50.4z M145,47.9v-6c-1-0.2-1.8-0.4-2.6-0.4c-0.8-0.1-1.6-0.1-2.5-0.1c-2,0-3.5,0.3-4.6,1
		c-1.1,0.7-1.7,1.6-1.7,2.9c0,1.2,0.4,2.2,1.3,2.8c0.9,0.6,2.2,1,4.1,1c1,0,2-0.1,3-0.3C143.2,48.6,144.1,48.3,145,47.9z"/>
</g>
</svg>
